<?xml version="1.0" standalone="no"?>
<!DOCTYPE svg PUBLIC "-//W3C//DTD SVG 20010904//EN"
 "http://www.w3.org/TR/2001/REC-SVG-20010904/DTD/svg10.dtd">
<svg version="1.0" xmlns="http://www.w3.org/2000/svg"
 width="50px" height="50px" viewBox="0 0 1280.000000 875.000000"
 preserveAspectRatio="xMidYMid meet">
<metadata>
Created by potrace 1.15, written by Peter Selinger 2001-2017
</metadata>
<g transform="translate(0.000000,875.000000) scale(0.100000,-0.100000)"
fill="rgb(42, 202, 149)" stroke="none">
<path d="M10365 8238 c-76 -227 -308 -902 -311 -906 -3 -5 -562 -159 -873
-243 -124 -32 -226 -61 -229 -63 -2 -2 194 -156 434 -342 241 -187 443 -343
450 -349 9 -8 9 -94 -1 -385 -8 -206 -17 -469 -21 -583 l-7 -209 464 332 c255
183 468 334 474 336 5 2 249 -85 540 -194 292 -110 531 -198 533 -197 1 1 -12
49 -29 106 -17 57 -89 302 -159 543 l-128 439 97 121 c183 228 611 774 611
780 0 3 -61 6 -137 6 -163 0 -791 18 -919 26 l-91 6 -317 474 c-175 261 -319
474 -321 474 -1 0 -28 -78 -60 -172z"/>
<path d="M3403 7423 c-257 -762 -623 -1817 -636 -1829 -11 -11 -1264 -358
-1817 -504 -405 -106 -540 -144 -539 -150 0 -3 30 -28 67 -55 117 -88 1826
-1407 1841 -1421 12 -11 11 -104 -8 -646 -24 -697 -58 -1634 -64 -1770 -3 -49
-3 -88 -1 -88 5 0 949 674 1528 1092 l479 346 61 -23 c34 -13 279 -104 546
-203 267 -100 754 -282 1083 -405 328 -123 597 -219 597 -215 0 5 -54 189
-119 411 -66 221 -192 652 -280 957 -88 305 -187 643 -219 751 l-58 195 304
385 c168 211 503 636 745 944 242 308 447 568 455 578 8 9 12 20 8 24 -4 4
-220 11 -479 15 -413 6 -1036 22 -1745 44 l-213 7 -427 636 c-235 350 -541
808 -682 1018 -140 210 -258 383 -261 383 -3 0 -78 -215 -166 -477z"/>
<path d="M9975 2928 c-66 -192 -122 -354 -125 -358 -5 -9 -282 -88 -575 -165
-77 -20 -143 -40 -148 -44 -4 -4 126 -110 289 -236 l296 -229 -7 -210 c-4
-116 -10 -290 -15 -386 -4 -96 -7 -176 -6 -177 1 -1 142 98 314 221 l312 223
143 -53 c78 -29 238 -89 355 -132 193 -72 213 -78 208 -59 -3 12 -51 175 -105
362 l-100 340 28 35 c107 134 441 561 441 563 0 2 -136 7 -302 11 -167 4 -338
9 -381 13 l-78 6 -205 306 c-114 168 -209 309 -213 313 -3 4 -60 -151 -126
-344z"/>
</g>
</svg>
